# xmcd
#
# Track frame offsets: 
#        182
#        31070
#        54867
#        69697
#        81802
#        93270
#        106942
#        121822
#        140417
#
# Disc length: 2116 seconds
#
# Revision: 2
# Processed by: cddbd v1.5.1PL0 Copyright (c) Steve Scherf et al.
# Submitted via: ExactAudioCopy v0.95a5
#
DISCID=69084209
DTITLE=Buckwheat Zydeco - On A Night Like This
DYEAR=1987
DGENRE=Country
TTITLE0=Ma 'Tit Fille
TTITLE1=Buckwheat's Special
TTITLE2=Zydeco Honky Tonk
TTITLE3=Marie Marie
TTITLE4=On A Night Like This
TTITLE5=Time Is Tight
TTITLE6=Space Zydeco
TTITLE7=Hot Tamale baby
TTITLE8=People's Choice
EXTD=
EXTT0=
EXTT1=
EXTT2=
EXTT3=
EXTT4=
EXTT5=
EXTT6=
EXTT7=
EXTT8=
PLAYORDER=
